<svg width="56" height="35" viewBox="0 0 56 35" fill="none" xmlns="http://www.w3.org/2000/svg">
<path d="M43.0516 18.3338L53.1926 33.5H1.5V1.5H53.1926L43.0516 16.6662L42.4941 17.5L43.0516 18.3338Z" fill="#DB4F00" stroke="black" stroke-width="3"/>
<path d="M17.0613 25.2C15.9146 25.2 14.9013 24.9733 14.0213 24.52C13.1546 24.0667 12.4079 23.3867 11.7813 22.48L13.2613 20.78C13.9146 21.7133 14.5413 22.36 15.1413 22.72C15.7413 23.08 16.4546 23.26 17.2813 23.26C17.7879 23.26 18.2479 23.18 18.6613 23.02C19.0746 22.86 19.4013 22.64 19.6413 22.36C19.8813 22.08 20.0013 21.76 20.0013 21.4C20.0013 21.16 19.9613 20.9333 19.8813 20.72C19.8013 20.5067 19.6746 20.3133 19.5013 20.14C19.3413 19.9667 19.1279 19.8067 18.8613 19.66C18.6079 19.5133 18.3079 19.3867 17.9613 19.28C17.6146 19.16 17.2146 19.06 16.7613 18.98C15.8013 18.7933 15.0013 18.5133 14.3613 18.14C13.7346 17.7667 13.2613 17.2933 12.9413 16.72C12.6346 16.1467 12.4813 15.48 12.4813 14.72C12.4813 14.16 12.6013 13.64 12.8413 13.16C13.0946 12.68 13.4346 12.2667 13.8613 11.92C14.3013 11.56 14.8146 11.2867 15.4013 11.1C15.9879 10.9 16.6213 10.8 17.3013 10.8C18.3813 10.8 19.3213 11.0133 20.1213 11.44C20.9346 11.8533 21.5746 12.46 22.0413 13.26L20.5213 14.76C20.1213 14.1067 19.6413 13.6067 19.0813 13.26C18.5346 12.9133 17.9213 12.74 17.2413 12.74C16.7213 12.74 16.2679 12.82 15.8813 12.98C15.4946 13.14 15.1879 13.3667 14.9613 13.66C14.7479 13.94 14.6413 14.2733 14.6413 14.66C14.6413 14.94 14.6946 15.2 14.8013 15.44C14.9079 15.6667 15.0679 15.8733 15.2813 16.06C15.5079 16.2333 15.8079 16.3933 16.1813 16.54C16.5546 16.6733 17.0013 16.7933 17.5213 16.9C18.2546 17.06 18.9079 17.2667 19.4813 17.52C20.0546 17.76 20.5413 18.0467 20.9413 18.38C21.3413 18.7133 21.6413 19.0867 21.8413 19.5C22.0546 19.9133 22.1613 20.36 22.1613 20.84C22.1613 21.7333 21.9546 22.5067 21.5413 23.16C21.1279 23.8133 20.5413 24.32 19.7813 24.68C19.0213 25.0267 18.1146 25.2 17.0613 25.2ZM15.8613 26.82V17.74L17.8013 18.4V26.82H15.8613ZM18.6013 18.4L16.6612 17.74V9.36H18.6013V18.4ZM25.1217 25L24.4617 23.36L28.7417 18.54C28.9684 18.3 29.2017 18.0267 29.4417 17.72C29.6951 17.4 29.9351 17.0733 30.1617 16.74C30.3884 16.4067 30.5684 16.08 30.7017 15.76C30.8484 15.4267 30.9217 15.1133 30.9217 14.82C30.9217 14.3933 30.8351 14.0333 30.6617 13.74C30.5017 13.4333 30.2617 13.2 29.9417 13.04C29.6351 12.88 29.2617 12.8 28.8217 12.8C28.4351 12.8 28.0551 12.9133 27.6817 13.14C27.3084 13.3667 26.9684 13.6867 26.6617 14.1C26.3551 14.5133 26.1151 14.9933 25.9417 15.54L24.2817 14.5C24.5084 13.7267 24.8484 13.0667 25.3017 12.52C25.7684 11.96 26.3217 11.5333 26.9617 11.24C27.6151 10.9467 28.3217 10.8 29.0817 10.8C29.8684 10.8 30.5684 10.9667 31.1817 11.3C31.7951 11.62 32.2751 12.0733 32.6217 12.66C32.9684 13.2333 33.1417 13.9 33.1417 14.66C33.1417 14.9667 33.1084 15.28 33.0417 15.6C32.9751 15.92 32.8684 16.2533 32.7217 16.6C32.5751 16.9333 32.3884 17.2867 32.1617 17.66C31.9351 18.02 31.6617 18.4 31.3417 18.8C31.0351 19.2 30.6817 19.62 30.2817 20.06L27.1017 23.52L26.7017 22.92H33.5817V25H25.1217Z" fill="white"/>
</svg>
